<svg xmlns="http://www.w3.org/2000/svg" width="100%" height="100%" viewBox="0 0 228 237.546">
  <g id="Layer_2" data-name="Layer 2" transform="translate(0 -4.196)">
    <g id="Layer_1" data-name="Layer 1" transform="translate(0 4.196)">
      <g id="Group_76625" data-name="Group 76625" transform="translate(33.46)">
        <path id="Path_1709" data-name="Path 1709" d="M288.294,147.5c-.4,2.786,1.259,6.611-.7,8.268-1.657,1.4-5.379.489-8.144.43-2.663-.059-6.143,1.173-7.762-.5s-.382-5.121-.479-7.789c-.317-8.434.2-9.026,8.677-8.714,2.69.1,6.159-.823,7.789.538C289.413,141.144,287.987,144.77,288.294,147.5Z" transform="translate(-144.719 -72.68)" fill="#fd904d"/>
        <path id="Path_1710" data-name="Path 1710" d="M181.032,113.436c.141-7.679-3.2-13.525-9.734-17.049-14.146-7.635-28.6-7.645-42.771,0-6.661,3.587-9.962,9.555-9.807,17.33.141,6.787,0,13.622.044,20.433.044,5.759,3.127,9.535,8.668,10.951a27.767,27.767,0,0,0,6.952.63c8.028,0,16.06.092,24.088-.053,2.618-.044,2.424,1.033,1.527,2.647-1.939,3.393-5.231,3.917-8.677,3.922q-22.716.044-45.437,0a17.225,17.225,0,0,1-4.508-.582c-2.244-.625-4.242-1.939-4.625-4.363-.916-5.846-.364-11.751-.271-17.631,0-.621.63-1.251,1.018-1.837a36.083,36.083,0,0,0,5.391-27.351c-2.87-15.75-17.767-27.331-34.162-26.7-15.837.606-29.939,13.54-31.592,29.047-.1.887-1.013,2.463.873,2.642,1.765.165,1.348-1.391,1.488-2.424,2.065-14.693,14.621-26.274,29.135-26.871,21.485-.882,37.09,18.964,31.413,39.974-.742,2.739-1.411,5.536-3.713,8.241,0-5.26,0-9.909-.024-14.543,0-.693.485-1.973-.8-1.891-3.059.2-6.2-.882-9.152,1.1-6.326,4.227-12.808,8.241-19.2,12.362-.485.31-1.488.349-1.062,1.9l10.025-6.326c.417,7.48-.325,14.5.485,21.49.155,1.323-.7,1.454-1.609,1.711a46.261,46.261,0,0,1-12.667,1.454c-18.906-.32-33.861-11.227-38.36-27.981C19.124,95.572,26.4,77.325,42.17,67.848a3.784,3.784,0,0,1,3.922-.339,27.007,27.007,0,0,0,11,1.973c11.281-.029,22.566,0,33.847,0,6.787,0,7.965.936,9.458,7.582,0,.1.325.131.674.257,0-2.39-.165-4.727.044-7.029s-.485-2.855-2.8-2.836q-20.734.175-41.472.034c-11.014-.078-18.828-6.035-21.863-16.395-2.957-10.112,1.76-19.633,11-22.217a26.914,26.914,0,0,1,7.238-.819c9.351,0,18.707.082,28.054-.1,6.375-.126,10.587-3.815,11.93-10.1,1.139-5.332.32-10.742.519-16.109,0-.562.378-1.357-.519-1.75-1.672,6.956-2.763,7.8-10.02,7.8-10.772,0-21.548-.073-32.324.053a19.676,19.676,0,0,0-16,8.1c-10.04,13.089-8.634,34.54,3.02,46.242,1.1,1.105,2.322,2.08,3.641,3.248A43.319,43.319,0,0,0,33.187,71.6a45.166,45.166,0,0,0-6.423,7.693c-11.5,16.967-8.954,45.568,11.634,58.017,11.344,6.855,23.487,8.435,36.333,5.526,1.178-.267,2.492-1.319,3.461.844,3.369,7.485,9.322,10.665,17.52,10.607,21.955-.155,43.91-.048,65.865-.053,11.567,0,19.3-7.587,19.42-19.144C181.066,127.867,180.92,120.649,181.032,113.436Zm-22.3,30.39c-3.878-.136-7.727.034-11.576-.165-5.269-.267-7.708-2.545-7.8-7.756-.17-9.749-.2-19.507.039-29.256.16-6.375,4.411-10.486,10.253-10.665s10.389,3.742,10.825,10.078c.431,6.263.092,12.6.092,18.882h.17c0,5.589-.048,11.179.029,16.768.039,1.561-.373,2.167-2.021,2.109Z" transform="translate(-19.956 0)" fill="#fd904d"/>
      </g>
      <text id="فائق_عبد_الجليل" data-name="فائق عبد الجليل" transform="translate(0 216.546)" fill="#777" font-size="40" font-family="AA-Font Kufic Letters Round"><tspan x="0" y="0">فائق عبد الجليل</tspan></text>
    </g>
  </g>
</svg>
