<svg xmlns="http://www.w3.org/2000/svg" width="100%" height="100%" viewBox="0 0 1920 653.119">
  <g id="Group_76613" data-name="Group 76613" transform="translate(11627 -7111.496)">
    <g id="Group_76611" data-name="Group 76611" transform="translate(-11627 7107)">
      <g id="Group_76612" data-name="Group 76612">
        <path id="Path_26" data-name="Path 26" d="M1920,0s-47.587-118.673-246-118.673S1409.816,42.9,1122,72.567,800.623-74.927,520.123-33.247C381-12.573,249.69,63.386,158.375,116.7,65.7,170.815,0,116.7,0,116.7V502.455H1920Z" transform="translate(0 123.169)" fill="#828282"/>
        <path id="Path_27" data-name="Path 27" d="M1920,0s-47.587-118.673-246-118.673S1409.816,42.9,1122,72.567,789.814-79.3,509.314-37.622C370.186-16.948,249.69,63.386,158.375,116.7,65.7,170.815,0,116.7,0,116.7V499.446H1920Z" transform="translate(0 158.169)" fill="#707070"/>
      </g>
    </g>
  </g>
</svg>
