<svg id="Group_1" data-name="Group 1" xmlns="http://www.w3.org/2000/svg" width="119.033" height="106.298" viewBox="0 0 119.033 106.298">
  <path id="Path_1" data-name="Path 1" d="M127.914,104.066S91.738,44.152,51.31,17c11.534,10.158,47.737,40.786,73.646,88.594a21.024,21.024,0,0,1,4.181,2.448Z" transform="translate(-10.104 -1.833)" fill="#af9e95"/>
  <path id="Path_2" data-name="Path 2" d="M5.19,5.373C16.564,8.259,24.676,16,31.35,25.323,40.1,27.7,49.487,28.9,53.239,33.212a40.142,40.142,0,0,0-18.566-2.93c6.317,10.007,11.365,21.041,16.975,29.6,12.508,4.968,26.365,2.68,34.433,10.2-4.6-2.3-13.759-.25-26.1-.268a11.363,11.363,0,0,0,1.144.893c17.779,13.232,46.28,18.762,46.28,18.762C79.533,48.58,42.92,3.434,5.19,5.373Z" transform="translate(-5.19 -0.588)" fill="#51443e"/>
  <path id="Path_3" data-name="Path 3" d="M102.654,60.98a35.452,35.452,0,0,0,.893-12.017C96.078,27.637,85.786,14.432,71.527,7.195c3.761,5.906,7.559,13.4,7.594,19.656-2.046-7.9-9.506-16.707-15.769-23C48.387-1.07,29.633-.891,6.1,2.379,67.569.628,111.812,81.744,111.812,81.744a234.581,234.581,0,0,0-6.629-27.8A23.524,23.524,0,0,1,102.654,60.98Z" transform="translate(-5.287 -0.025)" fill="#51443e"/>
  <path id="Path_4" data-name="Path 4" d="M41.344,72.2s-18.6,22.783-16.216,24.123C29.443,98.4,43.622,92.57,65.065,92.57s46.164,10.275,46.164,10.275-29.242-8.568-46.164-7.719c-20.88,1.019-40.982,6.853-49.765,9.381C17.382,98.065,41.344,72.2,41.344,72.2Z" transform="translate(-6.267 -7.716)" fill="#af9e95"/>
  <path id="Path_5" data-name="Path 5" d="M21.63,104.53l9.381,12.928s41.322-15.859,80.633,0c-37.793-18.5-75.853-4.539-79.445-4.762S21.63,104.53,21.63,104.53Z" transform="translate(-6.942 -11.161)" fill="#af9e95"/>
  <path id="Path_6" data-name="Path 6" d="M26.8,108.023s38.865-16.975,85.056,1.662C72.66,92.567,39.755,101.644,26.8,108.023Z" transform="translate(-7.493 -10.66)" fill="#af9e95"/>
  <path id="Path_7" data-name="Path 7" d="M28.13,111.687s37.23-17.422,83.385,1.161C72.355,95.748,41.085,105.281,28.13,111.687Z" transform="translate(-7.634 -11.018)" fill="#af9e95"/>
</svg>
