<svg xmlns="http://www.w3.org/2000/svg" xmlns:xlink="http://www.w3.org/1999/xlink" width="299" height="1080" viewBox="0 0 299 1080">
  <defs>
    <clipPath id="clip-path">
      <rect id="Rectangle_2787" data-name="Rectangle 2787" width="299" height="1080" transform="translate(-8599 -1384)" fill="#fff"/>
    </clipPath>
  </defs>
  <g id="Mask_Group_10" data-name="Mask Group 10" transform="translate(8599 1384)" clip-path="url(#clip-path)">
    <path id="Exclusion_1" data-name="Exclusion 1" d="M1303.878,1080h-309v-.025H0V0H994.878V1079.975h214.163a89.259,89.259,0,0,0,10.16-9.494,152.049,152.049,0,0,0,10.383-12.333,180.886,180.886,0,0,0,11.86-17.8,217.565,217.565,0,0,0,21.972-53.257c6.532-24.2,9.677-50.731,9.348-78.858,3.093-88.061-56.662-167.671-119.925-251.955-34.231-45.6-69.628-92.763-96.352-143.152-6.906-13.021-13.057-25.959-18.284-38.453a374.54,374.54,0,0,1-14.17-39.9,319.25,319.25,0,0,1-9.159-41.543,293.8,293.8,0,0,1-3.252-43.377,386.368,386.368,0,0,1,2.217-41.36A379.619,379.619,0,0,1,1020.1,269.6c2.622-12.19,5.9-24.432,9.736-36.385,3.646-11.355,7.895-22.746,12.628-33.857,16.375-38.437,39.208-75.316,67.864-109.613A502.843,502.843,0,0,1,1146.576,50.8c10.235-9.894,20.873-19.342,31.618-28.082C1196.487,7.845,1208.918.077,1209.041,0h94.837V1080Z" transform="translate(-9609.878 -1384)" opacity="0.3"/>
  </g>
</svg>
