<svg xmlns="http://www.w3.org/2000/svg"  viewBox="0 0 48.375 46.732">
  <g id="Group_30" data-name="Group 30" transform="translate(-3803.625 -3571)">
    <g id="svgexport-19_6_" data-name="svgexport-19 (6)" transform="translate(3803.625 3571)" opacity="0.8">
      <path id="Path_15" data-name="Path 15" d="M24.186.435C10.828.435,0,9.995,0,21.79A20.156,20.156,0,0,0,7.277,37.047C6.294,42.729-.053,45.032.383,46.6c5.361,2.218,16.1-2.666,18.723-3.932a27.365,27.365,0,0,0,5.08.481c13.358,0,24.188-9.56,24.188-21.357S37.545.435,24.186.435ZM22.472,22.679c0,5.807-2.569,9.065-7.632,9.682l-.03,0a.234.234,0,0,1-.236-.236V29.177a.234.234,0,0,1,.121-.206,6.506,6.506,0,0,0,3.521-6.054H14.81a.238.238,0,0,1-.236-.236V15.256a.237.237,0,0,1,.236-.236h7.427a.237.237,0,0,1,.236.236v7.423Zm13.149,0c0,5.718-2.275,8.614-7.613,9.681a.245.245,0,0,1-.2-.049.234.234,0,0,1-.085-.183V29.177a.234.234,0,0,1,.121-.206,6.506,6.506,0,0,0,3.521-6.054H27.962a.238.238,0,0,1-.236-.236V15.256a.237.237,0,0,1,.236-.236h7.423a.235.235,0,0,1,.236.236Z" transform="translate(0 -0.435)" fill="#51443e"/>
    </g>
  </g>
</svg>
