<svg xmlns="http://www.w3.org/2000/svg" width="1568.483" height="304.13" viewBox="0 0 1568.483 304.13">
  <path id="Subtraction_1" data-name="Subtraction 1" d="M581.907,1001.979c-22.208,0-44.253-.786-65.525-2.335-20.576-1.5-40.983-3.753-60.655-6.7-19-2.846-37.824-6.414-55.957-10.606-17.478-4.041-34.782-8.769-51.432-14.053-16.015-5.083-31.854-10.816-47.077-17.041-14.606-5.972-29.038-12.557-42.9-19.57-13.256-6.71-26.339-13.99-38.885-21.64-11.962-7.294-23.753-15.117-35.046-23.251A536.478,536.478,0,0,1,79.2,786.845a530.625,530.625,0,0,1-34.05-47.7C36.58,725.6,28.672,711.7,21.647,697.849,45.843,738.941,92.51,798.312,177.439,847.8c101.963,59.411,232.838,89.536,388.989,89.536,130.074,0,301.374-21.063,509.142-62.6,84.179-16.83,174.952-37.165,269.8-60.44,78.792-19.335,161.143-40.878,244.764-64.031-32.631,13.762-68.99,28.077-108.065,42.55-39.113,14.487-80.843,29.092-124.03,43.41-43.85,14.538-89.128,28.756-134.578,42.257-46.741,13.885-93.746,27.037-139.71,39.09-47.74,12.519-94.649,23.927-139.426,33.909C897.5,961.914,852.506,970.9,810.595,978.191,719.828,993.975,642.886,1001.979,581.907,1001.979Z" transform="translate(-21.647 -697.849)" fill="#01d681"/>
</svg>
